<svg width="40" height="40" viewBox="0 0 40 40" fill="none" xmlns="http://www.w3.org/2000/svg">
<path d="M20 0.5C22.5608 0.5 25.0965 1.00438 27.4623 1.98435C29.8282 2.96432 31.9778 4.40068 33.7886 6.21142C35.5993 8.02216 37.0357 10.1718 38.0157 12.5377C38.9956 14.9035 39.5 17.4392 39.5 20C39.5 22.5608 38.9956 25.0965 38.0157 27.4623C37.0357 29.8282 35.5993 31.9778 33.7886 33.7886C31.9778 35.5993 29.8282 37.0357 27.4623 38.0156C25.0965 38.9956 22.5608 39.5 20 39.5C14.8283 39.5 9.86838 37.4455 6.21142 33.7886C2.55446 30.1316 0.5 25.1717 0.5 20C0.5 14.8283 2.55446 9.86838 6.21142 6.21142C9.86838 2.55446 14.8283 0.5 20 0.5ZM20 3.75C15.6902 3.75 11.557 5.46205 8.50951 8.50951C5.46205 11.557 3.75 15.6902 3.75 20C3.75 24.3098 5.46205 28.443 8.50951 31.4905C11.557 34.538 15.6902 36.25 20 36.25C24.3098 36.25 28.443 34.538 31.4905 31.4905C34.538 28.443 36.25 24.3098 36.25 20C36.25 15.6902 34.538 11.557 31.4905 8.50951C28.443 5.46205 24.3098 3.75 20 3.75ZM20 26.5C20.6465 26.5 21.2665 26.7568 21.7236 27.2139C22.1807 27.671 22.4375 28.291 22.4375 28.9375C22.4375 29.584 22.1807 30.204 21.7236 30.6611C21.2665 31.1182 20.6465 31.375 20 31.375C19.3535 31.375 18.7335 31.1182 18.2764 30.6611C17.8193 30.204 17.5625 29.584 17.5625 28.9375C17.5625 28.291 17.8193 27.671 18.2764 27.2139C18.7335 26.7568 19.3535 26.5 20 26.5ZM20 8.625C20.3803 8.62487 20.7487 8.75816 21.0408 9.00164C21.333 9.24512 21.5305 9.58338 21.599 9.9575L21.625 10.25V21.625C21.6257 22.0311 21.4744 22.4227 21.2008 22.7228C20.9273 23.0229 20.5512 23.2097 20.1468 23.2463C19.7424 23.283 19.3389 23.167 19.0158 22.921C18.6927 22.6751 18.4733 22.3171 18.401 21.9175L18.375 21.625V10.25C18.375 9.81902 18.5462 9.4057 18.851 9.10095C19.1557 8.79621 19.569 8.625 20 8.625Z" fill="#CACACA"/>
</svg>
