<svg width="52" height="52" viewBox="0 0 52 52" fill="none" xmlns="http://www.w3.org/2000/svg">
<circle cx="26" cy="26" r="26" fill="white"/>
<g clip-path="url(#clip0_280_4891)">
<path d="M17.0919 29.338L15.978 33.4963L11.9068 33.5824C10.6901 31.3257 10 28.7438 10 26C10 23.3468 10.6453 20.8448 11.789 18.6418H11.7899L15.4144 19.3063L17.0021 22.909C16.6698 23.8778 16.4887 24.9178 16.4887 26C16.4888 27.1745 16.7016 28.2998 17.0919 29.338Z" fill="#FBBB00"/>
<path d="M41.7205 23.011C41.9042 23.9789 42.0001 24.9784 42.0001 26C42.0001 27.1455 41.8796 28.2629 41.6502 29.3407C40.8713 33.0084 38.8361 36.211 36.0168 38.4774L36.0159 38.4765L31.4507 38.2435L30.8046 34.2101C32.6753 33.113 34.1373 31.396 34.9074 29.3407H26.3518V23.011H41.7205Z" fill="#518EF8"/>
<path d="M36.0157 38.4765L36.0166 38.4774C33.2747 40.6813 29.7915 42 25.9999 42C19.9067 42 14.6092 38.5943 11.9067 33.5824L17.0918 29.3381C18.443 32.9442 21.9217 35.5113 25.9999 35.5113C27.7529 35.5113 29.3951 35.0374 30.8043 34.2101L36.0157 38.4765Z" fill="#28B446"/>
<path d="M36.2128 13.6835L31.0295 17.927C29.5711 17.0154 27.8471 16.4887 26.0001 16.4887C21.8295 16.4887 18.2858 19.1736 17.0023 22.909L11.7899 18.6418H11.7891C14.4519 13.5077 19.8163 10 26.0001 10C29.8823 10 33.4418 11.3829 36.2128 13.6835Z" fill="#F14336"/>
</g>
<defs>
<clipPath id="clip0_280_4891">
<rect width="32" height="32" fill="white" transform="translate(10 10)"/>
</clipPath>
</defs>
</svg>
