<svg width="52" height="52" viewBox="0 0 52 52" fill="none" xmlns="http://www.w3.org/2000/svg">
<g clip-path="url(#clip0_146_3047)">
<rect width="52" height="52" rx="26" fill="#FFE812"/>
<path d="M26 8.66666C15.23 8.66666 6.5 15.297 6.5 23.4771C6.5 28.7655 10.1506 33.411 15.6406 36.0263C15.3406 37.0178 13.7206 42.4092 13.6569 42.8337C13.6569 42.8337 13.6175 43.1515 13.8312 43.2726C13.9028 43.3073 13.9809 43.3276 14.0608 43.3323C14.1408 43.3369 14.2209 43.3258 14.2963 43.2996C14.9113 43.2166 21.4213 38.8186 22.5462 38.0618C23.6906 38.2149 24.8447 38.2903 26 38.2876C36.77 38.2876 45.5 31.6572 45.5 23.4771C45.5 15.297 36.77 8.66666 26 8.66666Z" fill="#111111"/>
<path d="M15.098 29.12C14.8106 29.1259 14.5325 29.0178 14.3246 28.8193C14.1167 28.6207 13.9959 28.3479 13.9886 28.0605V21.4708H12.258C12.1116 21.4769 11.9654 21.4533 11.8284 21.4014C11.6913 21.3495 11.5662 21.2705 11.4604 21.169C11.3547 21.0676 11.2706 20.9458 11.2131 20.811C11.1556 20.6762 11.126 20.5311 11.126 20.3846C11.126 20.238 11.1556 20.093 11.2131 19.9582C11.2706 19.8234 11.3547 19.7016 11.4604 19.6001C11.5662 19.4987 11.6913 19.4196 11.8284 19.3678C11.9654 19.3159 12.1116 19.2923 12.258 19.2983H17.938C18.0844 19.2923 18.2305 19.3159 18.3676 19.3678C18.5047 19.4196 18.6298 19.4987 18.7356 19.6001C18.8413 19.7016 18.9254 19.8234 18.9829 19.9582C19.0404 20.093 19.07 20.238 19.07 20.3846C19.07 20.5311 19.0404 20.6762 18.9829 20.811C18.9254 20.9458 18.8413 21.0676 18.7356 21.169C18.6298 21.2705 18.5047 21.3495 18.3676 21.4014C18.2305 21.4533 18.0844 21.4769 17.938 21.4708H16.2074V28.0605C16.2001 28.3479 16.0793 28.6207 15.8714 28.8193C15.6635 29.0178 15.3854 29.1259 15.098 29.12Z" fill="#FFE812"/>
<path d="M24.8251 29.107C24.3628 29.107 24.0097 28.9221 23.9006 28.617L23.3459 27.1785H19.9697L19.415 28.617C19.3078 28.9184 18.9546 29.107 18.4905 29.107C18.2474 29.107 18.0072 29.0546 17.7861 28.9535C17.4792 28.813 17.1852 28.4247 17.5217 27.3782L20.1823 20.3928C20.2786 20.0755 20.4744 19.7975 20.7407 19.6C21.0071 19.4025 21.3299 19.2958 21.6615 19.2958C21.9931 19.2958 22.3159 19.4025 22.5823 19.6C22.8486 19.7975 23.0444 20.0755 23.1407 20.3928L25.7921 27.3745C26.1304 28.4228 25.8365 28.8111 25.5314 28.9517C25.3096 29.0526 25.0688 29.1049 24.8251 29.1051V29.107ZM22.7709 25.2131L21.6615 22.0698L20.5521 25.2131H22.7709Z" fill="#FFE812"/>
<path d="M27.5783 28.9592C27.3026 28.9647 27.036 28.8608 26.8368 28.6702C26.6376 28.4796 26.5219 28.2179 26.5151 27.9423V20.4078C26.527 20.1154 26.6514 19.8388 26.8625 19.6361C27.0736 19.4334 27.3549 19.3202 27.6476 19.3202C27.9403 19.3202 28.2216 19.4334 28.4327 19.6361C28.6438 19.8388 28.7683 20.1154 28.7801 20.4078V26.9254H31.1375C31.2762 26.917 31.4152 26.9371 31.5458 26.9844C31.6765 27.0318 31.7961 27.1053 31.8972 27.2005C31.9984 27.2958 32.079 27.4107 32.1341 27.5383C32.1892 27.6659 32.2177 27.8034 32.2177 27.9423C32.2177 28.0813 32.1892 28.2187 32.1341 28.3463C32.079 28.4739 31.9984 28.5888 31.8972 28.6841C31.7961 28.7793 31.6765 28.8529 31.5458 28.9002C31.4152 28.9475 31.2762 28.9676 31.1375 28.9592H27.5783Z" fill="#FFE812"/>
<path d="M33.7405 29.1072C33.4463 29.1072 33.1641 28.9903 32.956 28.7823C32.748 28.5742 32.6311 28.292 32.6311 27.9978V20.4078C32.6311 20.1136 32.748 19.8314 32.956 19.6234C33.1641 19.4153 33.4463 19.2985 33.7405 19.2985C34.0347 19.2985 34.3169 19.4153 34.5249 19.6234C34.733 19.8314 34.8499 20.1136 34.8499 20.4078V22.793L37.945 19.6978C38.0261 19.6178 38.1223 19.5547 38.228 19.5122C38.3337 19.4696 38.4468 19.4485 38.5607 19.4501C38.848 19.4561 39.1218 19.5735 39.3243 19.7773C39.5158 19.9641 39.6316 20.2149 39.6497 20.4818C39.66 20.6052 39.6434 20.7294 39.6013 20.8459C39.5592 20.9623 39.4925 21.0683 39.4057 21.1567L36.8782 23.6842L39.6091 27.3026C39.7863 27.5375 39.863 27.8332 39.8223 28.1246C39.7816 28.4161 39.6267 28.6794 39.3918 28.8567C39.1569 29.0339 38.8612 29.1106 38.5698 29.0699C38.2784 29.0291 38.015 28.8743 37.8378 28.6394L35.2363 25.1911L34.8517 25.5757V27.996C34.8519 28.142 34.8234 28.2866 34.7676 28.4215C34.7119 28.5564 34.63 28.679 34.5268 28.7823C34.4235 28.8855 34.3009 28.9673 34.166 29.0231C34.0311 29.0789 33.8865 29.1074 33.7405 29.1072Z" fill="#FFE812"/>
</g>
<defs>
<clipPath id="clip0_146_3047">
<rect width="52" height="52" rx="26" fill="white"/>
</clipPath>
</defs>
</svg>
